<svg xmlns="http://www.w3.org/2000/svg" viewBox="0 0 68.91 68.91"><defs><style>.cls-1{fill:#acada7;fill-rule:evenodd;}</style></defs><title>lattes</title><g id="Camada_2" data-name="Camada 2"><g id="Layer_1" data-name="Layer 1"><path class="cls-1" d="M58.82,10.09A34.46,34.46,0,1,0,68.91,34.46,34.36,34.36,0,0,0,58.82,10.09ZM16.55,33.14c-.14-.67-.26-1.34-.35-2S16,29.93,16,29.33a31.65,31.65,0,0,1,0-5.84,23.15,23.15,0,0,1,.61-3.2,14.67,14.67,0,0,1,1.84-4.07,12.56,12.56,0,0,1,3.3-3.59A13.67,13.67,0,0,1,25,10.93a24.58,24.58,0,0,1,4.24-1c.31-.05.64,0,1,0a27.35,27.35,0,0,1,4.7.29,31.1,31.1,0,0,1,4.36.95c1.2.35,2.39.73,3.55,1.19s2.08.86,3.1,1.36c.39.19.81.35,1.2.56a1.17,1.17,0,0,1,.47.54c.09.16,0,.3-.19.33a3.29,3.29,0,0,1-1.12.18c-1.07-.15-2.14-.26-3.21-.41a26.67,26.67,0,0,0-4.64-.22,13.46,13.46,0,0,0-3.39.53,10.23,10.23,0,0,0-2.48,1.11,5.5,5.5,0,0,0-1.88,2.15,8.34,8.34,0,0,0-.93,3.73c0,.43,0,.87,0,1.16A19,19,0,0,0,30,26.23a29.63,29.63,0,0,0,.64,3.25c.28,1.14.62,2.26,1,3.38.31.94.7,1.86,1,2.79.22.58.48,1.14.68,1.72.1.27.21.54.3.82s0,.37-.27.37a4.78,4.78,0,0,1-.75-.08c-1.23-.22-2.45-.46-3.67-.67l-2.12-.38-3.31-.57-3.08-.55-2.82-.49c-.4-.07-.56-.27-.63-.72C16.84,34.44,16.68,33.79,16.55,33.14Zm30.79-5.71a6.14,6.14,0,0,1-.12,1.05,4.9,4.9,0,0,1-.59,1.63,5,5,0,0,1-1.31,1.4,6.25,6.25,0,0,1-2.56,1,6.93,6.93,0,0,1-2.18.07,10.44,10.44,0,0,1-1.9-.43A10,10,0,0,1,37,31.47a9.41,9.41,0,0,1-1.81-1.25,8.83,8.83,0,0,1-2.54-3.3,7.27,7.27,0,0,1-.61-3,5.28,5.28,0,0,1,.44-1.83,4.84,4.84,0,0,1,2.76-2.59,6.35,6.35,0,0,1,3.51-.35,10.84,10.84,0,0,1,4.65,1.92,10.24,10.24,0,0,1,2.72,2.77,8.06,8.06,0,0,1,.9,1.87A5.78,5.78,0,0,1,47.34,27.43Zm9.12,6.87c-.06.74,0,1.49-.07,2.22a15.45,15.45,0,0,1-.49,2.3A23.84,23.84,0,0,1,54,43.26a21.31,21.31,0,0,1-3.27,4.4,29.07,29.07,0,0,1-3.64,3.19,32.89,32.89,0,0,1-4.26,2.65c-1.08.57-2.18,1.09-3.3,1.59-.92.4-1.87.71-2.81,1.08s-1.74.57-2.61.86-1.63.48-2.46.67-1.37.36-2.07.5l-2,.38L25.64,59c-.32.07-.38,0-.5-.27-.33-.89-.68-1.78-1-2.67-.29-.74-.56-1.49-.85-2.24l-.72-1.83-.66-1.81-.72-1.89c-.24-.62-.46-1.25-.7-1.87l-.69-1.8-.72-1.89c-.23-.61-.47-1.22-.7-1.84s-.46-1.23-.69-1.85L17,37.24c-.09-.25,0-.32.24-.25.78.2,1.56.43,2.34.61.56.13,1.1.27,1.65.42,1.08.29,2.18.51,3.28.7.71.12,1.43.23,2.14.33,1.68.22,3.37.24,5.05.31a28.58,28.58,0,0,0,3.93-.18,25.46,25.46,0,0,0,4.25-.79,20.66,20.66,0,0,0,5.3-2.19,11.46,11.46,0,0,0,4-3.8,7.19,7.19,0,0,0,1.2-4A11.28,11.28,0,0,0,50,25.09c-.21-.74-.49-1.45-.76-2.16a6.76,6.76,0,0,1-.53-2,.47.47,0,0,1,.13-.35c.11-.11.21,0,.31,0,.46.12.7.51,1,.82.8.86,1.59,1.72,2.33,2.64a20.71,20.71,0,0,1,2.28,3.56,16.4,16.4,0,0,1,1.22,3.26,11.65,11.65,0,0,1,.28,1.43c0,.32.09.66.16,1A3.6,3.6,0,0,1,56.46,34.3Z"/></g></g></svg>