<svg xmlns="http://www.w3.org/2000/svg" viewBox="0 0 68.91 68.91"><defs><style>.cls-1{fill:#acada7;fill-rule:evenodd;}</style></defs><title>linkedin</title><g id="Camada_2" data-name="Camada 2"><g id="Layer_1" data-name="Layer 1"><path class="cls-1" d="M58.82,10.09A34.46,34.46,0,1,0,68.91,34.46,34.36,34.36,0,0,0,58.82,10.09ZM23.9,53.75h-8V28h8Zm-4-29.09a4.75,4.75,0,1,1,4.71-4.75A4.73,4.73,0,0,1,19.88,24.66ZM53.75,53.75H45.82V40.25c0-3.71-1.41-5.78-4.34-5.78-3.18,0-4.85,2.16-4.85,5.78v13.5H29V28h7.64v3.46a9,9,0,0,1,7.76-4.25c5.45,0,9.36,3.33,9.36,10.22Z"/></g></g></svg>