<svg xmlns="http://www.w3.org/2000/svg" viewBox="0 0 68.91 68.91"><defs><style>.cls-1{fill:#acada7;}</style></defs><title>orcid</title><g id="Camada_2" data-name="Camada 2"><g id="Layer_1" data-name="Layer 1"><path class="cls-1" d="M34.46,0A34.46,34.46,0,1,0,68.91,34.46,34.46,34.46,0,0,0,34.46,0ZM23.23,50.12H19.09V21.29h4.14ZM21.16,18a2.72,2.72,0,1,1,2.72-2.72A2.73,2.73,0,0,1,21.16,18ZM40.57,50.15H29.32V21.29H40.51c10.66,0,15.35,7.62,15.35,14.43C55.86,43.12,50.07,50.15,40.57,50.15ZM39.84,25H33.46V46.41h6.6c9.39,0,11.54-7.13,11.54-10.69C51.6,29.93,47.92,25,39.84,25Z"/></g></g></svg>