<svg xmlns="http://www.w3.org/2000/svg" viewBox="0 0 68.91 68.91"><defs><style>.cls-1{fill:#acada7;fill-rule:evenodd;}.cls-2{fill:#76a7fa;}</style></defs><title>scholar</title><g id="Camada_2" data-name="Camada 2"><g id="Layer_1" data-name="Layer 1"><path class="cls-1" d="M58.82,10.09A34.46,34.46,0,1,0,68.91,34.46,34.36,34.36,0,0,0,58.82,10.09ZM34.46,59.49a14.28,14.28,0,0,1-13-20.21,1.42,1.42,0,0,1,.08-.18l0-.07a14.26,14.26,0,0,1,2-3.07l.12-.15.17-.19.1-.11c.32-.34.65-.66,1-1l.16-.14.19-.16.16-.13.23-.19.19-.14c.34-.25.68-.49,1-.71l.2-.12.19-.11h0l.22-.12c.22-.13.45-.25.68-.36l.21-.1.26-.11.2-.09.23-.09.2-.08a10.9,10.9,0,0,1,1.26-.41l.22-.07c.41-.1.83-.19,1.26-.26l.25,0,.19,0,.81-.08h.32l.48,0h.6l.47,0h.33l.8.08.19,0,.26,0c.42.07.84.16,1.25.26l.23.07a10.9,10.9,0,0,1,1.26.41l.19.08.24.09.19.09.27.11.2.1c.24.11.46.23.69.36l.22.12h0l.2.11.19.12c.22.13.43.27.64.42l.21.14.2.15.19.15.23.18.16.13.19.16.15.14A13.86,13.86,0,0,1,46.09,37l.14.19a11.68,11.68,0,0,1,.66,1.06l.11.19c.12.23.24.46.35.7l.09.18a14.28,14.28,0,0,1-13,20.21ZM49,38.47l-.1-.2c-.12-.26-.25-.52-.39-.77a1.28,1.28,0,0,0-.11-.2c-.23-.4-.47-.8-.73-1.17l-.15-.21a15.39,15.39,0,0,0-2.38-2.65,1.14,1.14,0,0,0-.17-.15l-.21-.18-.17-.15-.25-.19-.22-.17-.22-.16-.22-.15-.7-.47-.21-.12-.22-.13h0l-.24-.14c-.24-.13-.49-.26-.75-.38l-.23-.11L41,30.63l-.21-.09-.26-.11-.21-.08c-.45-.17-.92-.33-1.39-.46l-.24-.06q-.68-.18-1.38-.3l-.28,0-.21,0c-.29,0-.59-.07-.88-.09l-.2,0h-2l-.2,0c-.3,0-.59.05-.89.09l-.21,0-.28,0c-.46.08-.92.18-1.37.3l-.25.06c-.47.13-.93.29-1.39.46l-.21.08-.26.11-.21.09-.29.13-.23.11-.75.38-.24.14h0l-.22.13-.21.12c-.4.25-.78.51-1.15.78l-.21.16-.25.2-.18.15-.21.18-.17.15a13.63,13.63,0,0,0-1.09,1.06l-.11.12c-.06.07-.13.14-.19.22l-.13.15A15.5,15.5,0,0,0,20.6,38.2l0,.07-.09.2L7.88,28.2,34.72,7,61.57,28.2Z"/><path class="cls-2" d="M21.59,39l0,.07h0Z"/></g></g></svg>