<svg xmlns="http://www.w3.org/2000/svg" viewBox="0 0 68.91 68.91"><defs><style>.cls-1{fill:#acada7;fill-rule:evenodd;}</style></defs><title>youtube</title><g id="Camada_2" data-name="Camada 2"><g id="Layer_1" data-name="Layer 1"><path class="cls-1" d="M41.53,35.12,28.79,41.2a.51.51,0,0,1-.73-.47V28.2a.5.5,0,0,1,.74-.45L41.54,34.2A.51.51,0,0,1,41.53,35.12Z"/><path class="cls-1" d="M58.82,10.09A34.46,34.46,0,1,0,68.91,34.46,34.36,34.36,0,0,0,58.82,10.09ZM57.75,41.26a9.68,9.68,0,0,1-9.68,9.68H20.84a9.68,9.68,0,0,1-9.68-9.68V27.65A9.68,9.68,0,0,1,20.84,18H48.07a9.68,9.68,0,0,1,9.68,9.68Z"/></g></g></svg>